<svg xmlns="http://www.w3.org/2000/svg" width="167.5" height="72.416" viewBox="0 0 167.5 72.416">
  <g id="zen" transform="translate(-193.009 -169.087)">
    <path id="Path_1" data-name="Path 1" d="M-2170.361-925.347h-7.346l22.675-45.081h-21.211l-22.412,45.081h-7.481L-2179.068-978h34.958Z" transform="translate(2499.326 1158.225)" fill="#fff"/>
    <path id="Path_2" data-name="Path 2" d="M-1879.343-921.953l3.2,7.668h7.59l22.7-46h13.748l3.605-6.988h-21.272l-22.578,45.316Z" transform="translate(2173.262 1155.288)" fill="none" stroke="#fff" stroke-width="1"/>
    <path id="Path_3" data-name="Path 3" d="M-1843.314-924.18l3.873,7.577h6.37l27.277-53.573-4.633-6.176-26.055,52.155Z" transform="translate(2165.717 1157.545)" fill="none" stroke="#fff" stroke-width="1"/>
    <line id="Line_1" data-name="Line 1" x2="3.385" y2="7.446" transform="translate(300.974 233.217)" fill="none" stroke="#fff" stroke-width="1"/>
    <line id="Line_2" data-name="Line 2" x2="3.385" y2="7.446" transform="translate(323.99 187.862)" fill="none" stroke="#fff" stroke-width="1"/>
    <line id="Line_3" data-name="Line 3" x2="3.385" y2="7.446" transform="translate(328.729 233.217)" fill="none" stroke="#fff" stroke-width="1"/>
    <path id="Path_4" data-name="Path 4" d="M-2148.6-970.427h-27.646l-7.682,15.983h28.3l-3.026,6.05-28.058-.031-8.62,16.743,28.095.051-3.137,6.285h-35.761L-2179.068-978h34.958Z" transform="translate(2449.233 1158.225)" fill="#fff"/>
    <path id="Path_5" data-name="Path 5" d="M-1879.252-902.96l3.085,6.961,36.189.076,2.559-3.805-3.819-8.817-2.994,5.563Z" transform="translate(2123.139 1136.316)" fill="none" stroke="#fff" stroke-width="1"/>
    <line id="Line_4" data-name="Line 4" x2="3.385" y2="7.446" transform="translate(279.312 232.688)" fill="none" stroke="#fff" stroke-width="1"/>
    <path id="Path_6" data-name="Path 6" d="M0,6.177,5.272,0,9.929,1.011l11.6,26.06,12.454.589,2.367,5.632-19.467-.143L5.244,6.783Z" transform="matrix(-0.407, 0.914, -0.914, -0.407, 299.165, 207.322)" fill="none" stroke="#fff" stroke-width="1"/>
    <line id="Line_5" data-name="Line 5" x2="3.385" y2="6.769" transform="translate(290.82 208.995)" fill="none" stroke="#fff" stroke-width="1"/>
    <line id="Line_6" data-name="Line 6" x2="3.385" y2="6.769" transform="translate(262.389 209.672)" fill="none" stroke="#fff" stroke-width="1"/>
    <path id="Path_6-2" data-name="Path 6" d="M0,6.219,5.639,0l5.628,1.216,11.6,26.06,12.454.589L37.691,33.5l-19.467-.143L6.956,7.1Z" transform="matrix(-0.407, 0.914, -0.914, -0.407, 310.727, 183.844)" fill="none" stroke="#fff" stroke-width="1"/>
    <line id="Line_5-2" data-name="Line 5" x2="3.385" y2="6.769" transform="translate(301.651 186.656)" fill="none" stroke="#fff" stroke-width="1"/>
    <line id="Line_6-2" data-name="Line 6" x2="3.385" y2="6.769" transform="translate(273.22 187.333)" fill="none" stroke="#fff" stroke-width="1"/>
    <path id="Path_7" data-name="Path 7" d="M-2207.5-925.362l46.025-45.152h-23.45l4.612-7.486h35.762l-47.827,46.284h23.813l-3.218,6.354Z" transform="translate(2400.507 1158.225)" fill="#fff"/>
    <path id="Path_9" data-name="Path 9" d="M-1879.252-903.014l3.085,6.961,36.189.075,2.8-3.958-4-8.777-3.054,5.676Z" transform="translate(2073.046 1136.371)" fill="none" stroke="#fff" stroke-width="1"/>
    <line id="Line_7" data-name="Line 7" x2="4.062" y2="8.123" transform="translate(228.542 232.011)" fill="none" stroke="#fff" stroke-width="1"/>
    <path id="Path_10" data-name="Path 10" d="M0,0H7.59L33.774,50.1l-3.325,9.109Z" transform="matrix(0.276, 0.961, -0.961, 0.276, 255.518, 181.196)" fill="none" stroke="#fff" stroke-width="1"/>
    <path id="Path_11" data-name="Path 11" d="M-1983.321-1017.223l3.5,5.566h13.42l5.631-5.566Z" transform="translate(2199.8 1205.42)" fill="none" stroke="#fff" stroke-width="1"/>
  </g>
</svg>
