<svg xmlns="http://www.w3.org/2000/svg" width="247.452" height="107.012" viewBox="0 0 247.452 107.012"><g transform="translate(-193.009 -168.521)"><path d="M-2153.289-900.218h-10.851l33.5-66.595h-31.333l-33.108,66.595h-11.052L-2166.149-978h51.642Z" transform="translate(2547.136 1163)"/><path d="M-1879.343-900.327l4.725,11.327h11.212l33.538-67.946h20.308l5.326-10.323h-31.425l-33.352,66.942Z" transform="translate(2221.42 1163.782)" fill="none" stroke="#000" stroke-width="1.5"/><path d="M-1843.314-899.281l5.72,11.194h9.409l40.3-79.141-6.844-9.123-38.491,77.046Z" transform="translate(2227.47 1162.782)" fill="none" stroke="#000" stroke-width="1.5"/><line x2="5" y2="11" transform="translate(352.5 263.282)" fill="none" stroke="#000" stroke-width="1.5"/><line x2="5" y2="11" transform="translate(386.5 196.282)" fill="none" stroke="#000" stroke-width="1.5"/><line x2="5" y2="11" transform="translate(393.5 263.282)" fill="none" stroke="#000" stroke-width="1.5"/><path d="M-2121.136-966.812h-40.84l-11.349,23.61h41.8l-4.469,8.938-41.449-.046-12.734,24.733,41.5.075-4.634,9.284h-52.828L-2166.149-978h51.642Z" transform="translate(2473.136 1163)"/><path d="M-1879.251-900.295l4.557,10.283,53.461.112,3.78-5.621-5.642-13.025-4.423,8.219Z" transform="translate(2147.42 1163.782)" fill="none" stroke="#000" stroke-width="1.5"/><line x2="5" y2="11" transform="translate(320.5 262.5)" fill="none" stroke="#000" stroke-width="1.5"/><path d="M22.059,38.525,29.848,29.4l6.879,1.493,17.14,38.5,18.4.87,3.5,8.32L47,78.369,29.805,39.42Z" transform="matrix(-0.407, 0.914, -0.914, -0.407, 385.658, 216.835)" fill="none" stroke="#000" stroke-width="1.5"/><line x2="5" y2="10" transform="translate(337.5 227.5)" fill="none" stroke="#000" stroke-width="1.5"/><line x2="5" y2="10" transform="translate(295.5 228.5)" fill="none" stroke="#000" stroke-width="1.5"/><path d="M20.082,38.284,28.413,29.1l8.314,1.8,17.14,38.5,18.4.87,3.5,8.32L47,78.369,30.358,39.593Z" transform="matrix(-0.407, 0.914, -0.914, -0.407, 401.658, 183.835)" fill="none" stroke="#000" stroke-width="1.5"/><line x2="5" y2="10" transform="translate(353.5 194.5)" fill="none" stroke="#000" stroke-width="1.5"/><line x2="5" y2="10" transform="translate(311.5 195.5)" fill="none" stroke="#000" stroke-width="1.5"/><path d="M-2207.5-900.241l67.991-66.7h-34.642l6.814-11.058h52.828l-70.653,68.372h35.178l-4.754,9.387Z" transform="translate(2400.507 1163)"/><path d="M-1879.251-900.295l4.557,10.283,53.461.112,4.14-5.847-5.915-12.965-4.511,8.385Z" transform="translate(2073.42 1163.782)" fill="none" stroke="#000" stroke-width="1.5"/><line x2="6" y2="12" transform="translate(245.5 261.5)" fill="none" stroke="#000" stroke-width="1.5"/><path d="M-2.095-10.08H9.117L47.8,63.926,42.886,77.381Z" transform="matrix(0.276, 0.961, -0.961, 0.276, 276.237, 191.226)" fill="none" stroke="#000" stroke-width="1.5"/><path d="M-1983.321-1017.223l5.176,8.223h19.826l8.319-8.223Z" transform="translate(2211 1214)" fill="none" stroke="#000" stroke-width="1.5"/></g></svg>